<svg width="692" height="638" viewBox="0 0 692 638" fill="none" xmlns="http://www.w3.org/2000/svg">
<path d="M0 177.198C0 152.826 17.5726 132.005 41.5985 127.909L733.599 9.9548C764.13 4.75062 792 28.2723 792 59.2439V512.324C792 537.981 772.581 559.474 747.056 562.068L55.056 632.404C25.5943 635.399 0 612.274 0 582.66V177.198Z" fill="#F5F5F5"/>
<path d="M79 204.386C79 180.014 96.572 159.192 120.597 155.097L725.597 51.9565C756.129 46.7515 784 70.2733 784 101.245V493.157C784 518.814 764.581 540.306 739.057 542.901L134.057 604.403C104.595 607.398 79 584.273 79 554.659V204.386Z" fill="#D8D8D8"/>
<path d="M152 221.032C152 196.661 169.57 175.84 193.594 171.743L696.594 85.9606C727.127 80.7536 755 104.276 755 135.249V455.505C755 481.161 735.582 502.653 710.059 505.249L207.059 556.401C177.596 559.397 152 536.272 152 506.657V221.032Z" fill="#B6B6B6"/>
</svg>
