<svg width="277" height="300" viewBox="0 0 277 300" fill="none" xmlns="http://www.w3.org/2000/svg">
<path d="M213.09 0H259.67C268.863 0 276.316 7.46191 276.316 16.6666V283.333C276.316 292.538 268.863 300 259.67 300H222.015C216.309 300 211 297.073 207.949 292.245L93.9913 111.928C85.0748 97.8197 63.2798 104.144 63.2798 120.84V300H16.6455C7.45246 300 0 292.538 0 283.333V16.6668C0 7.462 7.45259 9.58429e-05 16.6457 0.00021407L54.0805 0.000695494C59.8053 0.000769117 65.1284 2.94646 68.1743 7.79991L182.168 189.444C191.05 203.596 212.891 197.308 212.908 180.593L213.09 0Z" fill="#D8DEE9"/>
<path d="M116.519 148.333L134.829 176.666L58.0674 240.608C51.0213 246.478 40.5621 245.539 34.6705 238.509L23.926 225.688L116.519 148.333Z" fill="#4C566A"/>
<path d="M220.286 60.713C227.329 54.7963 237.828 55.716 243.737 62.7673L254.437 75.5347L161.462 155L142.577 126.001L220.286 60.713Z" fill="#4C566A"/>
</svg>
